<?xml version="1.0" encoding="UTF-8"?>
<svg xmlns="http://www.w3.org/2000/svg" xmlns:xlink="http://www.w3.org/1999/xlink" width="18pt" height="19pt" viewBox="0 0 18 19" version="1.1">
<g id="surface1">
<path style=" stroke:none;fill-rule:nonzero;fill:rgb(0%,0%,0%);fill-opacity:1;" d="M 12.769531 0 L 5.210938 0 C 4.539062 0 3.992188 0.578125 3.992188 1.289062 L 3.992188 17.695312 C 3.992188 18.40625 4.539062 18.984375 5.210938 18.984375 L 12.769531 18.984375 C 13.445312 18.984375 13.992188 18.40625 13.992188 17.695312 L 13.992188 1.289062 C 13.992188 0.578125 13.445312 0 12.769531 0 Z M 13.515625 17.695312 C 13.515625 18.128906 13.179688 18.480469 12.769531 18.480469 L 5.210938 18.480469 C 4.800781 18.480469 4.46875 18.128906 4.46875 17.695312 L 4.46875 1.289062 C 4.46875 0.855469 4.800781 0.503906 5.210938 0.503906 L 12.769531 0.503906 C 13.179688 0.503906 13.515625 0.855469 13.515625 1.289062 Z M 13.515625 17.695312 "/>
<path style=" stroke:none;fill-rule:nonzero;fill:rgb(0%,0%,0%);fill-opacity:1;" d="M 13.066406 2.09375 L 4.886719 2.09375 C 4.820312 2.09375 4.765625 2.152344 4.765625 2.21875 L 4.765625 16.625 C 4.765625 16.695312 4.820312 16.75 4.886719 16.75 L 13.066406 16.75 C 13.132812 16.75 13.183594 16.695312 13.183594 16.625 L 13.183594 2.21875 C 13.183594 2.152344 13.132812 2.09375 13.066406 2.09375 Z M 12.628906 16.496094 L 5.324219 16.496094 C 5.148438 16.496094 5.003906 16.347656 5.003906 16.160156 L 5.003906 2.683594 C 5.003906 2.496094 5.148438 2.347656 5.324219 2.347656 L 12.628906 2.347656 C 12.804688 2.347656 12.945312 2.496094 12.945312 2.683594 L 12.945312 16.160156 C 12.945312 16.347656 12.804688 16.496094 12.628906 16.496094 Z M 12.628906 16.496094 "/>
<path style=" stroke:none;fill-rule:nonzero;fill:rgb(0%,0%,0%);fill-opacity:1;" d="M 8.46875 1.328125 L 9.8125 1.328125 C 9.875 1.328125 9.929688 1.269531 9.929688 1.203125 C 9.929688 1.132812 9.875 1.074219 9.8125 1.074219 L 8.46875 1.074219 C 8.402344 1.074219 8.347656 1.132812 8.347656 1.203125 C 8.347656 1.269531 8.402344 1.328125 8.46875 1.328125 Z M 8.46875 1.328125 "/>
<path style=" stroke:none;fill-rule:nonzero;fill:rgb(0%,0%,0%);fill-opacity:1;" d="M 9.792969 17.164062 L 8.421875 17.164062 C 8.136719 17.164062 7.90625 17.40625 7.90625 17.703125 L 7.90625 17.789062 C 7.90625 18.085938 8.136719 18.328125 8.421875 18.328125 L 9.792969 18.328125 C 10.078125 18.328125 10.304688 18.085938 10.304688 17.789062 L 10.304688 17.703125 C 10.304688 17.40625 10.078125 17.164062 9.792969 17.164062 Z M 10.066406 17.789062 C 10.066406 17.949219 9.945312 18.078125 9.792969 18.078125 L 8.421875 18.078125 C 8.269531 18.078125 8.148438 17.949219 8.148438 17.789062 L 8.148438 17.703125 C 8.148438 17.542969 8.269531 17.414062 8.421875 17.414062 L 9.792969 17.414062 C 9.945312 17.414062 10.066406 17.542969 10.066406 17.703125 Z M 10.066406 17.789062 "/>
<path style=" stroke:none;fill-rule:nonzero;fill:rgb(0%,0%,0%);fill-opacity:1;" d="M 6.8125 17.570312 L 6.234375 17.570312 C 6.210938 17.570312 6.195312 17.589844 6.195312 17.613281 C 6.195312 17.636719 6.210938 17.65625 6.234375 17.65625 L 6.8125 17.65625 C 6.832031 17.65625 6.851562 17.636719 6.851562 17.613281 C 6.851562 17.589844 6.832031 17.570312 6.8125 17.570312 Z M 6.8125 17.570312 "/>
<path style=" stroke:none;fill-rule:nonzero;fill:rgb(0%,0%,0%);fill-opacity:1;" d="M 6.769531 17.757812 L 6.277344 17.757812 C 6.253906 17.757812 6.238281 17.777344 6.238281 17.800781 C 6.238281 17.824219 6.253906 17.84375 6.277344 17.84375 L 6.769531 17.84375 C 6.789062 17.84375 6.808594 17.824219 6.808594 17.800781 C 6.808594 17.777344 6.789062 17.757812 6.769531 17.757812 Z M 6.769531 17.757812 "/>
<path style=" stroke:none;fill-rule:nonzero;fill:rgb(0%,0%,0%);fill-opacity:1;" d="M 6.734375 17.945312 L 6.3125 17.945312 C 6.289062 17.945312 6.269531 17.964844 6.269531 17.988281 C 6.269531 18.011719 6.289062 18.03125 6.3125 18.03125 L 6.734375 18.03125 C 6.757812 18.03125 6.773438 18.011719 6.773438 17.988281 C 6.773438 17.964844 6.757812 17.945312 6.734375 17.945312 Z M 6.734375 17.945312 "/>
<path style=" stroke:none;fill-rule:nonzero;fill:rgb(0%,0%,0%);fill-opacity:1;" d="M 11.679688 17.617188 C 11.65625 17.617188 11.640625 17.597656 11.640625 17.574219 C 11.640625 17.550781 11.59375 17.558594 11.535156 17.59375 C 11.480469 17.628906 11.480469 17.6875 11.535156 17.722656 C 11.59375 17.753906 11.640625 17.765625 11.640625 17.742188 C 11.640625 17.71875 11.65625 17.699219 11.679688 17.699219 L 11.714844 17.699219 C 11.847656 17.699219 11.957031 17.773438 11.957031 17.855469 C 11.957031 17.941406 11.847656 18.011719 11.714844 18.011719 L 11.53125 18.011719 C 11.511719 18.011719 11.492188 18.03125 11.492188 18.054688 C 11.492188 18.078125 11.511719 18.09375 11.53125 18.09375 L 11.714844 18.09375 C 11.898438 18.09375 12.039062 17.992188 12.039062 17.855469 C 12.039062 17.722656 11.898438 17.617188 11.714844 17.617188 C 11.714844 17.617188 11.699219 17.617188 11.679688 17.617188 Z M 11.679688 17.617188 "/>
</g>
</svg>
