<?xml version="1.0" encoding="UTF-8"?>
<svg xmlns="http://www.w3.org/2000/svg" xmlns:xlink="http://www.w3.org/1999/xlink" width="19pt" height="22pt" viewBox="0 0 19 22" version="1.1">
<g id="surface1">
<path style=" stroke:none;fill-rule:nonzero;fill:rgb(0%,0%,0%);fill-opacity:1;" d="M 13.480469 0 L 5.5 0 C 4.792969 0 4.214844 0.667969 4.214844 1.492188 L 4.214844 20.488281 C 4.214844 21.3125 4.792969 21.980469 5.5 21.980469 L 13.480469 21.980469 C 14.191406 21.980469 14.769531 21.3125 14.769531 20.488281 L 14.769531 1.492188 C 14.769531 0.667969 14.191406 0 13.480469 0 Z M 14.265625 20.488281 C 14.265625 20.988281 13.914062 21.398438 13.480469 21.398438 L 5.5 21.398438 C 5.070312 21.398438 4.71875 20.988281 4.71875 20.488281 L 4.71875 1.492188 C 4.71875 0.992188 5.070312 0.582031 5.5 0.582031 L 13.480469 0.582031 C 13.914062 0.582031 14.265625 0.992188 14.265625 1.492188 Z M 14.265625 20.488281 "/>
<path style=" stroke:none;fill-rule:nonzero;fill:rgb(0%,0%,0%);fill-opacity:1;" d="M 13.792969 2.425781 L 5.15625 2.425781 C 5.085938 2.425781 5.03125 2.492188 5.03125 2.570312 L 5.03125 19.25 C 5.03125 19.328125 5.085938 19.394531 5.15625 19.394531 L 13.792969 19.394531 C 13.863281 19.394531 13.917969 19.328125 13.917969 19.25 L 13.917969 2.570312 C 13.917969 2.492188 13.859375 2.425781 13.792969 2.425781 Z M 13.328125 19.101562 L 5.617188 19.101562 C 5.433594 19.101562 5.28125 18.929688 5.28125 18.714844 L 5.28125 3.105469 C 5.28125 2.890625 5.433594 2.71875 5.617188 2.71875 L 13.332031 2.71875 C 13.515625 2.71875 13.667969 2.890625 13.667969 3.105469 L 13.667969 18.714844 C 13.664062 18.929688 13.515625 19.101562 13.328125 19.101562 Z M 13.328125 19.101562 "/>
<path style=" stroke:none;fill-rule:nonzero;fill:rgb(0%,0%,0%);fill-opacity:1;" d="M 8.9375 1.539062 L 10.355469 1.539062 C 10.425781 1.539062 10.480469 1.472656 10.480469 1.390625 C 10.480469 1.3125 10.425781 1.246094 10.355469 1.246094 L 8.9375 1.246094 C 8.871094 1.246094 8.8125 1.3125 8.8125 1.390625 C 8.8125 1.472656 8.871094 1.539062 8.9375 1.539062 Z M 8.9375 1.539062 "/>
<path style=" stroke:none;fill-rule:nonzero;fill:rgb(0%,0%,0%);fill-opacity:1;" d="M 10.339844 19.871094 L 8.886719 19.871094 C 8.589844 19.871094 8.347656 20.152344 8.347656 20.496094 L 8.347656 20.597656 C 8.347656 20.941406 8.589844 21.222656 8.886719 21.222656 L 10.339844 21.222656 C 10.636719 21.222656 10.878906 20.941406 10.878906 20.597656 L 10.878906 20.496094 C 10.878906 20.152344 10.636719 19.871094 10.339844 19.871094 Z M 10.625 20.597656 C 10.625 20.78125 10.496094 20.933594 10.339844 20.933594 L 8.886719 20.933594 C 8.730469 20.933594 8.597656 20.78125 8.597656 20.597656 L 8.597656 20.496094 C 8.597656 20.3125 8.730469 20.164062 8.886719 20.164062 L 10.339844 20.164062 C 10.496094 20.164062 10.625 20.3125 10.625 20.496094 Z M 10.625 20.597656 "/>
<path style=" stroke:none;fill-rule:nonzero;fill:rgb(0%,0%,0%);fill-opacity:1;" d="M 7.191406 20.34375 L 6.582031 20.34375 C 6.558594 20.34375 6.539062 20.367188 6.539062 20.394531 C 6.539062 20.421875 6.558594 20.441406 6.582031 20.441406 L 7.191406 20.441406 C 7.210938 20.441406 7.230469 20.421875 7.230469 20.394531 C 7.230469 20.367188 7.210938 20.34375 7.191406 20.34375 Z M 7.191406 20.34375 "/>
<path style=" stroke:none;fill-rule:nonzero;fill:rgb(0%,0%,0%);fill-opacity:1;" d="M 7.144531 20.5625 L 6.625 20.5625 C 6.601562 20.5625 6.585938 20.585938 6.585938 20.613281 C 6.585938 20.636719 6.601562 20.660156 6.625 20.660156 L 7.144531 20.660156 C 7.167969 20.660156 7.1875 20.636719 7.1875 20.613281 C 7.1875 20.585938 7.167969 20.5625 7.144531 20.5625 Z M 7.144531 20.5625 "/>
<path style=" stroke:none;fill-rule:nonzero;fill:rgb(0%,0%,0%);fill-opacity:1;" d="M 7.109375 20.78125 L 6.660156 20.78125 C 6.636719 20.78125 6.621094 20.800781 6.621094 20.828125 C 6.621094 20.855469 6.636719 20.878906 6.660156 20.878906 L 7.109375 20.878906 C 7.132812 20.878906 7.152344 20.855469 7.152344 20.828125 C 7.152344 20.800781 7.132812 20.78125 7.109375 20.78125 Z M 7.109375 20.78125 "/>
<path style=" stroke:none;fill-rule:nonzero;fill:rgb(0%,0%,0%);fill-opacity:1;" d="M 12.328125 20.398438 C 12.304688 20.398438 12.285156 20.375 12.285156 20.347656 C 12.285156 20.324219 12.238281 20.332031 12.179688 20.375 C 12.117188 20.414062 12.117188 20.480469 12.179688 20.519531 C 12.238281 20.558594 12.285156 20.570312 12.285156 20.542969 C 12.285156 20.515625 12.304688 20.496094 12.328125 20.496094 L 12.367188 20.496094 C 12.507812 20.496094 12.625 20.578125 12.625 20.675781 C 12.625 20.773438 12.507812 20.855469 12.367188 20.855469 L 12.171875 20.855469 C 12.148438 20.855469 12.132812 20.878906 12.132812 20.902344 C 12.132812 20.929688 12.148438 20.953125 12.171875 20.953125 L 12.367188 20.953125 C 12.558594 20.953125 12.707031 20.832031 12.707031 20.675781 C 12.707031 20.519531 12.558594 20.398438 12.367188 20.398438 C 12.367188 20.398438 12.347656 20.398438 12.328125 20.398438 Z M 12.328125 20.398438 "/>
</g>
</svg>
