<?xml version="1.0" encoding="UTF-8"?>
<svg xmlns="http://www.w3.org/2000/svg" xmlns:xlink="http://www.w3.org/1999/xlink" width="50pt" height="50pt" viewBox="0 0 50 50" version="1.1">
<g id="surface1">
<path style=" stroke:none;fill-rule:nonzero;fill:rgb(0%,0%,0%);fill-opacity:1;" d="M 35.476562 0 L 14.480469 0 C 12.609375 0 11.089844 1.519531 11.089844 3.390625 L 11.089844 46.566406 C 11.089844 48.433594 12.609375 49.953125 14.480469 49.953125 L 35.476562 49.953125 C 37.34375 49.953125 38.867188 48.433594 38.867188 46.566406 L 38.867188 3.390625 C 38.867188 1.519531 37.34375 0 35.476562 0 Z M 37.539062 46.566406 C 37.539062 47.703125 36.613281 48.628906 35.476562 48.628906 L 14.480469 48.628906 C 13.339844 48.628906 12.414062 47.703125 12.414062 46.566406 L 12.414062 3.390625 C 12.414062 2.25 13.339844 1.324219 14.480469 1.324219 L 35.476562 1.324219 C 36.613281 1.324219 37.539062 2.25 37.539062 3.390625 Z M 37.539062 46.566406 "/>
<path style=" stroke:none;fill-rule:nonzero;fill:rgb(0%,0%,0%);fill-opacity:1;" d="M 36.292969 5.511719 L 13.570312 5.511719 C 13.386719 5.511719 13.238281 5.660156 13.238281 5.84375 L 13.238281 43.746094 C 13.238281 43.929688 13.386719 44.078125 13.570312 44.078125 L 36.292969 44.078125 C 36.476562 44.078125 36.625 43.929688 36.625 43.746094 L 36.625 5.84375 C 36.625 5.660156 36.476562 5.511719 36.292969 5.511719 Z M 35.078125 43.414062 L 14.785156 43.414062 C 14.296875 43.414062 13.902344 43.019531 13.902344 42.53125 L 13.902344 7.058594 C 13.902344 6.570312 14.296875 6.175781 14.785156 6.175781 L 35.078125 6.175781 C 35.566406 6.175781 35.964844 6.570312 35.964844 7.058594 L 35.964844 42.53125 C 35.960938 43.019531 35.566406 43.414062 35.078125 43.414062 Z M 35.078125 43.414062 "/>
<path style=" stroke:none;fill-rule:nonzero;fill:rgb(0%,0%,0%);fill-opacity:1;" d="M 23.523438 3.492188 L 27.25 3.492188 C 27.433594 3.492188 27.582031 3.34375 27.582031 3.164062 C 27.582031 2.980469 27.433594 2.832031 27.25 2.832031 L 23.523438 2.832031 C 23.339844 2.832031 23.191406 2.980469 23.191406 3.164062 C 23.191406 3.34375 23.339844 3.492188 23.523438 3.492188 Z M 23.523438 3.492188 "/>
<path style=" stroke:none;fill-rule:nonzero;fill:rgb(0%,0%,0%);fill-opacity:1;" d="M 27.207031 45.164062 L 23.390625 45.164062 C 22.605469 45.164062 21.964844 45.800781 21.964844 46.585938 L 21.964844 46.8125 C 21.964844 47.597656 22.605469 48.234375 23.390625 48.234375 L 27.207031 48.234375 C 27.988281 48.234375 28.628906 47.597656 28.628906 46.8125 L 28.628906 46.585938 C 28.628906 45.800781 27.988281 45.164062 27.207031 45.164062 Z M 27.964844 46.8125 C 27.964844 47.230469 27.625 47.574219 27.207031 47.574219 L 23.390625 47.574219 C 22.96875 47.574219 22.628906 47.230469 22.628906 46.8125 L 22.628906 46.585938 C 22.628906 46.167969 22.96875 45.828125 23.390625 45.828125 L 27.207031 45.828125 C 27.625 45.828125 27.964844 46.167969 27.964844 46.585938 Z M 27.964844 46.8125 "/>
<path style=" stroke:none;fill-rule:nonzero;fill:rgb(0%,0%,0%);fill-opacity:1;" d="M 18.921875 46.238281 L 17.316406 46.238281 C 17.257812 46.238281 17.207031 46.289062 17.207031 46.347656 C 17.207031 46.410156 17.257812 46.460938 17.316406 46.460938 L 18.921875 46.460938 C 18.980469 46.460938 19.03125 46.410156 19.03125 46.347656 C 19.03125 46.289062 18.980469 46.238281 18.921875 46.238281 Z M 18.921875 46.238281 "/>
<path style=" stroke:none;fill-rule:nonzero;fill:rgb(0%,0%,0%);fill-opacity:1;" d="M 18.800781 46.734375 L 17.4375 46.734375 C 17.375 46.734375 17.328125 46.785156 17.328125 46.84375 C 17.328125 46.90625 17.375 46.953125 17.4375 46.953125 L 18.800781 46.953125 C 18.863281 46.953125 18.910156 46.90625 18.910156 46.84375 C 18.910156 46.785156 18.859375 46.734375 18.800781 46.734375 Z M 18.800781 46.734375 "/>
<path style=" stroke:none;fill-rule:nonzero;fill:rgb(0%,0%,0%);fill-opacity:1;" d="M 18.707031 47.226562 L 17.53125 47.226562 C 17.46875 47.226562 17.421875 47.277344 17.421875 47.335938 C 17.421875 47.398438 17.46875 47.449219 17.53125 47.449219 L 18.707031 47.449219 C 18.769531 47.449219 18.816406 47.398438 18.816406 47.335938 C 18.816406 47.277344 18.765625 47.226562 18.707031 47.226562 Z M 18.707031 47.226562 "/>
<path style=" stroke:none;fill-rule:nonzero;fill:rgb(0%,0%,0%);fill-opacity:1;" d="M 32.4375 46.359375 C 32.382812 46.359375 32.332031 46.308594 32.332031 46.25 C 32.332031 46.1875 32.207031 46.210938 32.046875 46.304688 C 31.890625 46.394531 31.890625 46.542969 32.046875 46.632812 C 32.207031 46.726562 32.332031 46.75 32.332031 46.691406 C 32.332031 46.628906 32.382812 46.578125 32.4375 46.578125 L 32.546875 46.578125 C 32.910156 46.578125 33.21875 46.765625 33.21875 46.988281 C 33.21875 47.210938 32.910156 47.398438 32.546875 47.398438 L 32.035156 47.398438 C 31.972656 47.398438 31.921875 47.449219 31.921875 47.507812 C 31.921875 47.570312 31.972656 47.621094 32.035156 47.621094 L 32.546875 47.621094 C 33.046875 47.621094 33.441406 47.34375 33.441406 46.988281 C 33.441406 46.636719 33.046875 46.359375 32.546875 46.359375 C 32.546875 46.359375 32.5 46.359375 32.4375 46.359375 Z M 32.4375 46.359375 "/>
</g>
</svg>
